<svg width="23" height="23" viewBox="0 0 23 23" fill="none" xmlns="http://www.w3.org/2000/svg">
<path d="M1.49861 7.09767C1.64344 6.43089 2.1109 5.89749 2.78657 5.62791C2.97155 5.55411 3.2719 5.54611 6.62424 5.5254C7.83659 5.5179 9.0489 5.51044 10.2613 5.50294C10.2762 5.45052 10.2912 5.39814 10.3062 5.34572C10.4108 4.97978 10.5873 4.8739 13.1396 3.64659C15.3628 2.57754 15.5398 2.50036 15.8133 2.48172C15.9109 2.47507 16.0085 2.46838 16.1061 2.46173C16.9444 2.8809 17.7827 3.30006 18.6209 3.71923C20.1965 4.50707 21.1809 5.02466 21.2568 5.10507C21.6408 5.51184 21.6068 6.22331 21.1856 6.59306C21.0937 6.67379 20.8376 6.83065 20.6166 6.94165C20.4826 7.00895 20.3487 7.0762 20.2148 7.14349C20.2146 7.57384 20.2145 8.00419 20.2143 8.43454C20.2139 9.72483 20.2138 9.72578 20.099 9.97253C20.0358 10.1083 19.9557 10.2508 19.921 10.2891C19.8681 10.3476 19.856 11.0465 19.8455 14.6691C19.8413 16.1059 19.8371 17.5427 19.8329 18.9795C19.7983 19.0652 19.7637 19.151 19.7291 19.2367C19.4937 19.8194 19.0172 20.2704 18.4506 20.4467C18.1925 20.5271 17.8845 20.5298 10.5622 20.5186C8.02221 20.5147 5.48228 20.5108 2.94231 20.5068C2.8292 20.4528 2.71604 20.3988 2.60293 20.3448C2.21628 20.1601 1.88139 19.85 1.69097 19.5001C1.43325 19.0265 1.43873 19.1693 1.44196 13.0049C1.44417 8.79383 1.45868 7.28149 1.49861 7.09767ZM11.094 6.78825C10.8385 6.65029 10.5777 6.47101 10.4877 6.37142C10.4351 6.31315 10.3825 6.25493 10.3298 6.19667C9.136 6.20085 7.94225 6.20498 6.74841 6.20916C5.55456 6.21334 4.36076 6.21751 3.16692 6.22169C3.09204 6.2561 3.0172 6.29056 2.94231 6.32497C2.67503 6.44787 2.41008 6.69261 2.27589 6.94044C2.18726 7.10423 2.17734 7.1987 2.16404 8.00734C2.15919 8.30306 2.15429 8.59882 2.14944 8.89454C3.71533 8.89454 5.28126 8.89454 6.84714 8.89454C8.41303 8.89454 9.97896 8.89454 11.5448 8.89454C11.5444 8.58382 11.544 8.27314 11.5436 7.96241C11.5432 7.65169 11.5427 7.34101 11.5423 7.03029C11.3928 6.94961 11.2434 6.86893 11.094 6.78825ZM18.811 11.2562C18.2108 11.7093 17.301 12.0907 16.5163 12.218C16.1043 12.2849 15.3601 12.2731 14.9752 12.1936C13.5065 11.8902 11.8948 10.7463 11.6231 9.81432C11.6013 9.73984 11.5797 9.66531 11.5579 9.59083C9.99096 9.58701 8.42399 9.58319 6.85703 9.57938C5.29006 9.57556 3.72314 9.57178 2.15618 9.56797C2.15618 11.1154 2.15618 12.6629 2.15618 14.2104C2.15618 15.7579 2.15618 17.3054 2.15618 18.8529C2.20245 18.9455 2.24867 19.038 2.29494 19.1306C2.38833 19.3175 2.501 19.4597 2.63963 19.5655C3.04657 19.8762 2.51178 19.8578 10.7415 19.8448C13.2201 19.8409 15.6986 19.8369 18.1772 19.833C18.2656 19.7878 18.3539 19.7426 18.4422 19.6974C18.7362 19.5471 19.0005 19.2438 19.0859 18.9587C19.1219 18.8385 19.1366 17.6606 19.1366 14.8999C19.1366 13.6034 19.1366 12.3068 19.1366 11.0103C19.0281 11.0923 18.9195 11.1742 18.811 11.2562ZM20.772 5.62279C20.6986 5.51795 16.0091 3.14454 15.8755 3.14454C15.7723 3.14454 11.1316 5.383 11.032 5.4808C10.9837 5.52819 10.9459 5.6267 10.9459 5.70509C10.9459 5.78321 10.9839 5.88249 11.032 5.93015C11.1411 6.03828 15.7812 8.49025 15.8767 8.49025C15.9784 8.49025 20.6215 6.16374 20.7426 6.05211C20.861 5.943 20.8731 5.76704 20.772 5.62279ZM19.5194 7.50196C19.5075 7.50196 18.7485 7.87594 17.8327 8.33302C16.2143 9.14071 16.1598 9.16407 15.8911 9.16407C15.58 9.16407 15.6096 9.17777 13.432 8.02495C12.8022 7.69153 12.2826 7.42299 12.2773 7.42829C12.272 7.43359 12.2645 7.92351 12.2604 8.51706C12.2518 9.78907 12.2529 9.79316 12.7448 10.2386C13.3726 10.807 14.0772 11.2174 14.8017 11.4369C15.1555 11.544 15.2845 11.5597 15.8349 11.5625C16.5841 11.5662 16.9257 11.4864 17.6318 11.1433C18.0778 10.9265 18.7834 10.4312 19.1932 10.0472C19.528 9.7335 19.5409 9.67645 19.5409 8.51414C19.5409 7.95743 19.5312 7.50196 19.5194 7.50196Z" fill="#4D4E51"/>
<path d="M3.93265 10.9834C4.04365 10.7741 4.18035 10.6493 4.35483 10.5979C4.45482 10.5685 4.98054 10.5562 5.75814 10.565C6.93199 10.5783 7.00845 10.5843 7.12547 10.6717C7.19366 10.7227 7.2911 10.8201 7.34204 10.8883C7.42968 11.0056 7.43539 11.0806 7.44788 12.2861C7.4627 13.7177 7.45282 13.7767 7.16226 13.9985C7.10571 14.0416 7.0492 14.0847 6.99264 14.1279C6.58044 14.1325 6.16823 14.1372 5.75603 14.1418C4.3533 14.1577 4.22999 14.1369 4.00861 13.8468C3.96769 13.7931 3.92677 13.7395 3.88584 13.6859C3.88175 13.2579 3.87762 12.83 3.87353 12.402C3.86293 11.2984 3.8712 11.0992 3.93265 10.9834ZM6.75334 11.2604C6.73685 11.2439 6.24159 11.2305 5.65275 11.2305C5.29589 11.2305 4.93899 11.2305 4.58213 11.2305C4.58213 11.5973 4.58213 11.9642 4.58213 12.331C4.58213 12.6979 4.58213 13.0648 4.58213 13.4316C4.94901 13.4316 5.31584 13.4316 5.68272 13.4316C6.04959 13.4316 6.41643 13.4316 6.7833 13.4316C6.7833 13.0748 6.7833 12.7179 6.7833 12.361C6.7833 11.7722 6.76983 11.2769 6.75334 11.2604Z" fill="#4D4E51"/>
<path d="M3.96288 16.128C4.15379 15.7534 4.19054 15.7451 5.66011 15.7451C6.87103 15.7451 6.94888 15.7501 7.09757 15.8375C7.18404 15.8883 7.30044 16.0096 7.35623 16.107C7.45587 16.2811 7.45744 16.3069 7.44607 17.5725C7.43507 18.7997 7.43008 18.8668 7.34055 18.9875C7.28885 19.0573 7.17973 19.1598 7.09806 19.2153C6.95256 19.3143 6.92336 19.3164 5.66011 19.3164C4.39687 19.3164 4.36767 19.3143 4.22216 19.2153C4.1405 19.1598 4.03138 19.0573 3.97968 18.9875C3.89033 18.8671 3.88507 18.7984 3.87303 17.595C3.86059 16.3532 3.8623 16.3253 3.96288 16.128ZM5.68338 16.4414C5.31624 16.4414 4.94913 16.4414 4.58199 16.4414C4.58199 16.8086 4.58199 17.1757 4.58199 17.5428C4.58199 17.9099 4.58199 18.277 4.58199 18.6442C4.94509 18.6402 5.30824 18.6362 5.67134 18.6322C6.03445 18.6282 6.3976 18.6241 6.7607 18.6201C6.7647 18.257 6.76874 17.8939 6.77274 17.5308C6.77674 17.1677 6.78078 16.8045 6.78478 16.4414C6.41763 16.4414 6.05053 16.4414 5.68338 16.4414Z" fill="#4D4E51"/>
<path d="M8.54269 16.4578C8.56825 16.405 8.63856 16.3393 8.69898 16.3118C8.77629 16.2765 9.71798 16.2617 11.8778 16.2617C14.9145 16.2617 14.948 16.2627 15.0651 16.3548C15.2184 16.4755 15.2308 16.744 15.0889 16.8724C14.9978 16.9549 14.8791 16.958 11.8507 16.958C10.8028 16.958 9.75486 16.958 8.70697 16.958C8.67086 16.916 8.63465 16.874 8.59853 16.832C8.48218 16.6967 8.4692 16.6095 8.54269 16.4578Z" fill="#4D4E51"/>
<path d="M2.91597 7.31602C2.94458 7.28067 2.9732 7.24531 3.00181 7.20996C3.98524 7.20996 4.96872 7.20996 5.95215 7.20996C6.93558 7.20996 7.91905 7.20996 8.90248 7.20996C8.9311 7.24531 8.95971 7.28067 8.98833 7.31602C9.03554 7.37433 9.07422 7.47823 9.07422 7.54688C9.07422 7.61552 9.03554 7.71942 8.98833 7.77773C8.95971 7.81308 8.9311 7.84844 8.90248 7.88379C7.91905 7.88379 6.93558 7.88379 5.95215 7.88379C4.96872 7.88379 3.98524 7.88379 3.00181 7.88379C2.9732 7.84844 2.94458 7.81308 2.91597 7.77773C2.86876 7.71942 2.83008 7.61552 2.83008 7.54688C2.83008 7.47823 2.86876 7.37433 2.91597 7.31602Z" fill="#4D4E51"/>
<path d="M8.52198 13.1621C8.53559 13.125 8.5776 13.0593 8.61524 13.0161C8.67881 12.9432 8.84857 12.9375 10.9678 12.9375C13.192 12.9375 13.2542 12.9398 13.3417 13.0273C13.4755 13.1611 13.4615 13.4015 13.3132 13.5182C13.197 13.6095 13.1526 13.6113 10.9809 13.6113C9.76327 13.6113 8.73428 13.5988 8.6943 13.5834C8.62396 13.5564 8.48645 13.3385 8.49368 13.2654C8.49561 13.2457 8.50837 13.1992 8.52198 13.1621Z" fill="#4D4E51"/>
<path d="M8.53437 18.2974C8.55666 18.2434 8.61514 18.1777 8.66433 18.1514C8.72381 18.1195 9.43227 18.1035 10.7802 18.1035C11.4557 18.1035 12.1312 18.1035 12.8067 18.1035C12.8435 18.1403 12.8802 18.1771 12.917 18.2138C13.0585 18.3553 13.0611 18.5502 12.9233 18.6797C12.8197 18.777 12.8127 18.7773 10.7515 18.7773C8.83917 18.7773 8.67844 18.7714 8.6129 18.6987C8.51879 18.5943 8.48438 18.4185 8.53437 18.2974Z" fill="#4D4E51"/>
<path d="M8.53454 11.2895C8.60651 11.1152 8.71697 11.0957 9.6349 11.0957C10.5103 11.0957 10.5165 11.0964 10.6261 11.206C10.7609 11.3408 10.7668 11.4942 10.6433 11.6512C10.6122 11.6906 10.5812 11.7301 10.5502 11.7695C10.246 11.7695 9.94172 11.7695 9.63751 11.7695C8.83363 11.7695 8.71378 11.7601 8.63193 11.6909C8.52071 11.5968 8.47888 11.4244 8.53454 11.2895Z" fill="#4D4E51"/>
</svg>
