<svg width="11" height="14" viewBox="0 0 11 14" fill="none" xmlns="http://www.w3.org/2000/svg">
<path d="M0.5 5.57134C0.5 9.12554 3.53179 12.0647 4.87373 13.1916C5.06579 13.3529 5.16296 13.4345 5.30625 13.4758C5.41782 13.5081 5.58203 13.5081 5.6936 13.4758C5.83715 13.4344 5.93365 13.3536 6.12643 13.1917C7.46837 12.0648 10.5 9.12587 10.5 5.57166C10.5 4.22662 9.97324 2.9365 9.03555 1.98541C8.09787 1.03432 6.82618 0.5 5.50009 0.5C4.174 0.5 2.90216 1.0344 1.96447 1.98549C1.02679 2.93658 0.5 4.22629 0.5 5.57134Z" stroke="#8B2072" stroke-linecap="round" stroke-linejoin="round"/>
<path d="M4.07145 4.8953C4.07145 5.70446 4.71105 6.3604 5.50003 6.3604C6.28901 6.3604 6.92861 5.70446 6.92861 4.8953C6.92861 4.08615 6.28901 3.4302 5.50003 3.4302C4.71105 3.4302 4.07145 4.08615 4.07145 4.8953Z" stroke="#8B2072" stroke-linecap="round" stroke-linejoin="round"/>
</svg>
