<svg width="23" height="23" viewBox="0 0 23 23" fill="none" xmlns="http://www.w3.org/2000/svg">
<path d="M22.8026 7.41485L20.113 4.72524V0.673828C20.113 0.301695 19.8113 0 19.4392 0H3.56082C3.18869 0 2.88699 0.301695 2.88699 0.673828V4.72524L0.197387 7.41485C0.0709766 7.54117 0 7.71255 0 7.89129V22.3262C0 22.6983 0.301695 23 0.673828 23H22.3262C22.6983 23 23 22.6983 23 22.3262V7.89129C23 7.71255 22.929 7.54117 22.8026 7.41485ZM20.113 6.63105L21.3732 7.89129L20.113 9.15153V6.63105ZM4.23465 1.34766H18.7654V10.4991L15.1088 14.1558L11.9765 11.0235C11.7134 10.7604 11.2867 10.7604 11.0236 11.0235L7.89129 14.1558L4.23465 10.4991V1.34766ZM2.88699 6.63105V9.15148L1.62676 7.89125L2.88699 6.63105ZM1.34766 9.51805L6.93836 15.1087L1.34766 20.6994V9.51805ZM2.30058 21.6523L11.5 12.4529L20.6994 21.6523H2.30058ZM21.6523 20.6994L16.0616 15.1087L21.6523 9.51805V20.6994Z" fill="#535552"/>
<path d="M9.43607 9.23464C9.77959 9.37776 10.1741 9.21536 10.3172 8.87185L10.4452 8.56476H12.5541L12.682 8.87185C12.7676 9.07727 13.1025 9.42668 13.5631 9.23464C13.9066 9.09151 14.0691 8.69701 13.9259 8.35349L12.1215 4.02303C12.017 3.77191 11.7716 3.6084 11.4996 3.6084C11.2275 3.6084 10.9821 3.77196 10.8776 4.02303L9.07319 8.35349C8.93016 8.69701 9.0926 9.09156 9.43607 9.23464ZM11.4996 6.03413L11.9926 7.21711H11.0068L11.4996 6.03413Z" fill="#535552"/>
<path d="M14.748 4.95644H15.1569V5.36523C15.1569 5.73736 15.4586 6.03906 15.8307 6.03906C16.2028 6.03906 16.5045 5.73736 16.5045 5.36523V4.95644H16.9133C17.2855 4.95644 17.5872 4.65475 17.5872 4.28261C17.5872 3.91048 17.2855 3.60878 16.9133 3.60878H16.5045V3.19995C16.5045 2.82782 16.2028 2.52612 15.8307 2.52612C15.4586 2.52612 15.1569 2.82782 15.1569 3.19995V3.60878H14.748C14.3759 3.60878 14.0742 3.91048 14.0742 4.28261C14.0742 4.65475 14.3759 4.95644 14.748 4.95644Z" fill="#535552"/>
</svg>
