<svg width="22" height="21" viewBox="0 0 22 21" fill="none" xmlns="http://www.w3.org/2000/svg">
<path d="M0.672906 8.65622C0.338192 8.34708 0.520009 7.78821 0.972739 7.7346L7.38769 6.97469C7.57221 6.95284 7.73248 6.83712 7.8103 6.66861L10.516 0.810132C10.707 0.396676 11.2955 0.396596 11.4865 0.810052L14.1922 6.66849C14.27 6.83699 14.4293 6.95303 14.6138 6.97488L21.0291 7.7346C21.4818 7.78821 21.6631 8.34724 21.3284 8.65638L16.5862 13.0371C16.4498 13.163 16.3891 13.3506 16.4253 13.5326L17.6838 19.8605C17.7727 20.3071 17.2968 20.6531 16.899 20.4307L11.2622 17.2787C11.1 17.1881 10.903 17.1885 10.7409 17.2791L5.10351 20.4299C4.70569 20.6523 4.22893 20.3071 4.31778 19.8605L5.57655 13.533C5.61276 13.351 5.55218 13.163 5.41576 13.037L0.672906 8.65622Z" stroke="#8B2072" stroke-linecap="round" stroke-linejoin="round"/>
</svg>
