<svg width="21" height="21" viewBox="0 0 21 21" fill="none" xmlns="http://www.w3.org/2000/svg">
<path d="M19.543 18.6244L16.918 15.3431C16.8419 15.2461 16.74 15.1724 16.6239 15.1306C16.5078 15.0888 16.3823 15.0806 16.2618 15.1069L10.4999 16.4063L4.73803 15.0938C4.6175 15.0675 4.49199 15.0757 4.37592 15.1175C4.25985 15.1593 4.1579 15.2329 4.08178 15.33L1.45678 18.6113C1.38061 18.7073 1.33286 18.8228 1.31894 18.9446C1.30502 19.0663 1.32549 19.1896 1.37803 19.3003C1.42932 19.4145 1.51217 19.5116 1.61682 19.5802C1.72146 19.6488 1.84354 19.686 1.96865 19.6875H19.0312C19.1549 19.6872 19.2759 19.6519 19.3804 19.5857C19.4849 19.5195 19.5686 19.4251 19.6218 19.3135C19.6743 19.2027 19.6948 19.0795 19.6809 18.9577C19.667 18.8359 19.6192 18.7204 19.543 18.6244Z" fill="#4D4E51"/>
<path d="M1.65373 5.15814L10.4147 7.62564L19.4578 5.08595C19.529 5.02506 19.5863 4.94963 19.6259 4.86474C19.6656 4.77984 19.6866 4.68744 19.6875 4.59376C19.6937 4.44817 19.6513 4.30465 19.5669 4.18583C19.4826 4.067 19.3611 3.97964 19.2215 3.93751L10.6903 1.31251C10.5655 1.2797 10.4344 1.2797 10.3097 1.31251L1.77842 3.93751C1.65729 3.9765 1.5501 4.04987 1.46991 4.14869C1.38973 4.2475 1.34 4.36749 1.32679 4.49406C1.31358 4.62063 1.33745 4.74831 1.39549 4.86155C1.45354 4.9748 1.54326 5.06872 1.65373 5.13189V5.15814Z" fill="#4D4E51"/>
<path d="M10.5919 8.93815C10.4763 8.9732 10.353 8.9732 10.2375 8.93815L5.57812 7.62565V10.6838C5.57986 11.8267 6.03467 12.9224 6.84287 13.7306C7.65107 14.5388 8.74672 14.9936 9.88969 14.9953H11.1103C12.2533 14.9936 13.3489 14.5388 14.1571 13.7306C14.9653 12.9224 15.4201 11.8267 15.4219 10.6838V7.57971L10.5919 8.93815Z" fill="#4D4E51"/>
</svg>
