<svg width="25" height="25" viewBox="0 0 25 25" fill="none" xmlns="http://www.w3.org/2000/svg">
<path d="M21.0938 5.46875H20.3125V3.90625C20.3125 3.69905 20.2302 3.50034 20.0837 3.35382C19.9372 3.20731 19.7385 3.125 19.5312 3.125H16.4062C16.199 3.125 16.0003 3.20731 15.8538 3.35382C15.7073 3.50034 15.625 3.69905 15.625 3.90625V5.46875H9.375V3.90625C9.375 3.69905 9.29269 3.50034 9.14618 3.35382C8.99966 3.20731 8.80095 3.125 8.59375 3.125H5.46875C5.26155 3.125 5.06284 3.20731 4.91632 3.35382C4.76981 3.50034 4.6875 3.69905 4.6875 3.90625V5.46875H3.90625C3.28465 5.46875 2.68851 5.71568 2.24897 6.15522C1.80943 6.59476 1.5625 7.1909 1.5625 7.8125V9.375H23.4375V7.8125C23.4375 7.1909 23.1906 6.59476 22.751 6.15522C22.3115 5.71568 21.7154 5.46875 21.0938 5.46875ZM17.1875 4.6875H18.75V5.46875H17.1875V4.6875ZM6.25 4.6875H7.8125V5.46875H6.25V4.6875Z" fill="#4D4E51"/>
<path d="M1.5625 19.5312C1.5625 20.1529 1.80943 20.749 2.24897 21.1885C2.68851 21.6281 3.28465 21.875 3.90625 21.875H21.0938C21.7154 21.875 22.3115 21.6281 22.751 21.1885C23.1906 20.749 23.4375 20.1529 23.4375 19.5312V10.9375H1.5625V19.5312ZM17.1875 13.2812C17.1875 13.074 17.2698 12.8753 17.4163 12.7288C17.5628 12.5823 17.7615 12.5 17.9688 12.5H18.75C18.9572 12.5 19.1559 12.5823 19.3024 12.7288C19.4489 12.8753 19.5312 13.074 19.5312 13.2812V14.0625C19.5312 14.2697 19.4489 14.4684 19.3024 14.6149C19.1559 14.7614 18.9572 14.8438 18.75 14.8438H17.9688C17.7615 14.8438 17.5628 14.7614 17.4163 14.6149C17.2698 14.4684 17.1875 14.2697 17.1875 14.0625V13.2812ZM17.1875 17.1875C17.1875 16.9803 17.2698 16.7816 17.4163 16.6351C17.5628 16.4886 17.7615 16.4062 17.9688 16.4062H18.75C18.9572 16.4062 19.1559 16.4886 19.3024 16.6351C19.4489 16.7816 19.5312 16.9803 19.5312 17.1875V17.9688C19.5312 18.176 19.4489 18.3747 19.3024 18.5212C19.1559 18.6677 18.9572 18.75 18.75 18.75H17.9688C17.7615 18.75 17.5628 18.6677 17.4163 18.5212C17.2698 18.3747 17.1875 18.176 17.1875 17.9688V17.1875ZM13.2812 13.2812C13.2812 13.074 13.3636 12.8753 13.5101 12.7288C13.6566 12.5823 13.8553 12.5 14.0625 12.5H14.8438C15.051 12.5 15.2497 12.5823 15.3962 12.7288C15.5427 12.8753 15.625 13.074 15.625 13.2812V14.0625C15.625 14.2697 15.5427 14.4684 15.3962 14.6149C15.2497 14.7614 15.051 14.8438 14.8438 14.8438H14.0625C13.8553 14.8438 13.6566 14.7614 13.5101 14.6149C13.3636 14.4684 13.2812 14.2697 13.2812 14.0625V13.2812ZM13.2812 17.1875C13.2812 16.9803 13.3636 16.7816 13.5101 16.6351C13.6566 16.4886 13.8553 16.4062 14.0625 16.4062H14.8438C15.051 16.4062 15.2497 16.4886 15.3962 16.6351C15.5427 16.7816 15.625 16.9803 15.625 17.1875V17.9688C15.625 18.176 15.5427 18.3747 15.3962 18.5212C15.2497 18.6677 15.051 18.75 14.8438 18.75H14.0625C13.8553 18.75 13.6566 18.6677 13.5101 18.5212C13.3636 18.3747 13.2812 18.176 13.2812 17.9688V17.1875ZM9.375 13.2812C9.375 13.074 9.45731 12.8753 9.60382 12.7288C9.75034 12.5823 9.94905 12.5 10.1562 12.5H10.9375C11.1447 12.5 11.3434 12.5823 11.4899 12.7288C11.6364 12.8753 11.7188 13.074 11.7188 13.2812V14.0625C11.7188 14.2697 11.6364 14.4684 11.4899 14.6149C11.3434 14.7614 11.1447 14.8438 10.9375 14.8438H10.1562C9.94905 14.8438 9.75034 14.7614 9.60382 14.6149C9.45731 14.4684 9.375 14.2697 9.375 14.0625V13.2812ZM9.375 17.1875C9.375 16.9803 9.45731 16.7816 9.60382 16.6351C9.75034 16.4886 9.94905 16.4062 10.1562 16.4062H10.9375C11.1447 16.4062 11.3434 16.4886 11.4899 16.6351C11.6364 16.7816 11.7188 16.9803 11.7188 17.1875V17.9688C11.7188 18.176 11.6364 18.3747 11.4899 18.5212C11.3434 18.6677 11.1447 18.75 10.9375 18.75H10.1562C9.94905 18.75 9.75034 18.6677 9.60382 18.5212C9.45731 18.3747 9.375 18.176 9.375 17.9688V17.1875ZM5.46875 17.1875C5.46875 16.9803 5.55106 16.7816 5.69757 16.6351C5.84409 16.4886 6.0428 16.4062 6.25 16.4062H7.03125C7.23845 16.4062 7.43716 16.4886 7.58368 16.6351C7.73019 16.7816 7.8125 16.9803 7.8125 17.1875V17.9688C7.8125 18.176 7.73019 18.3747 7.58368 18.5212C7.43716 18.6677 7.23845 18.75 7.03125 18.75H6.25C6.0428 18.75 5.84409 18.6677 5.69757 18.5212C5.55106 18.3747 5.46875 18.176 5.46875 17.9688V17.1875Z" fill="#4D4E51"/>
</svg>
