<svg width="10" height="10" viewBox="0 0 10 10" fill="none" xmlns="http://www.w3.org/2000/svg">
<path d="M8.96057 5C8.96057 4.90528 8.99834 4.81444 9.06555 4.74746C9.13277 4.68048 9.22394 4.64286 9.319 4.64286H10C9.91741 3.44466 9.40475 2.31612 8.55575 1.4636C7.70676 0.611076 6.57816 0.0915431 5.37634 0V0.714286C5.37634 0.809006 5.33858 0.899847 5.27136 0.966824C5.20415 1.0338 5.11298 1.07143 5.01792 1.07143C4.92286 1.07143 4.8317 1.0338 4.76448 0.966824C4.69726 0.899847 4.6595 0.809006 4.6595 0.714286V0C3.4513 0.0833176 2.31411 0.599225 1.45774 1.45253C0.601373 2.30584 0.0836163 3.43897 0 4.64286H0.716846C0.811906 4.64286 0.903072 4.68048 0.970289 4.74746C1.03751 4.81444 1.07527 4.90528 1.07527 5C1.07527 5.09472 1.03751 5.18556 0.970289 5.25254C0.903072 5.31952 0.811906 5.35714 0.716846 5.35714H0C0.0836163 6.56103 0.601373 7.69416 1.45774 8.54747C2.31411 9.40078 3.4513 9.91668 4.6595 10V9.28571C4.6595 9.19099 4.69726 9.10015 4.76448 9.03318C4.8317 8.9662 4.92286 8.92857 5.01792 8.92857C5.11298 8.92857 5.20415 8.9662 5.27136 9.03318C5.33858 9.10015 5.37634 9.19099 5.37634 9.28571V9.96429C6.57246 9.8738 7.69647 9.35935 8.54468 8.51417C9.3929 7.66898 9.90919 6.54899 10 5.35714H9.319C9.22394 5.35714 9.13277 5.31952 9.06555 5.25254C8.99834 5.18556 8.96057 5.09472 8.96057 5ZM7.42294 2.71429L5.2724 5.21429C5.24608 5.24275 5.21442 5.2658 5.17921 5.28214C5.17242 5.29003 5.16381 5.29616 5.15412 5.3C5.11377 5.32929 5.06715 5.34885 5.01792 5.35714H3.22581C3.13075 5.35714 3.03958 5.31952 2.97236 5.25254C2.90515 5.18556 2.86738 5.09472 2.86738 5C2.86738 4.90528 2.90515 4.81444 2.97236 4.74746C3.03958 4.68048 3.13075 4.64286 3.22581 4.64286H4.85305L6.89606 2.26786C6.95785 2.19587 7.0458 2.15129 7.14058 2.14392C7.23536 2.13655 7.32919 2.167 7.40143 2.22857C7.47368 2.29014 7.51842 2.37778 7.52581 2.47222C7.53321 2.56666 7.50265 2.66016 7.44086 2.73214L7.42294 2.71429Z" fill="#8B2072"/>
</svg>
