<svg width="129" height="120" viewBox="0 0 129 120" fill="none" xmlns="http://www.w3.org/2000/svg">
<path d="M129 44.2599C129 19.8549 109.145 0 84.7404 0C60.3355 0 40.4806 19.8549 40.4806 44.2599C40.4806 50.0941 41.6176 55.667 43.6788 60.7713C43.2979 60.8306 42.923 60.9429 42.5697 61.1198L2.0892 81.3599C0.80877 82.0002 0 83.3088 0 84.7404C0 86.172 0.80877 87.4804 2.0892 88.1209L20.2402 97.1965V120.443C20.2402 121.875 21.0494 123.184 22.3304 123.824C29.1086 127.21 36.6919 129 44.2599 129C51.8278 129 59.4108 127.21 66.1891 123.823C67.47 123.183 68.2793 121.875 68.2793 120.443V97.1965L80.9609 90.8556V115.527C80.9609 117.614 82.653 119.306 84.7402 119.306C86.8273 119.306 88.5194 117.614 88.5194 115.527V88.3562C111.162 86.4323 129 67.3917 129 44.2599ZM119.279 31.8469C120.677 35.7257 121.441 39.9051 121.441 44.2599C121.441 48.6146 120.677 52.7938 119.279 56.6728H103.967C104.457 52.6937 104.712 48.5211 104.712 44.2599C104.712 39.9986 104.457 35.826 103.967 31.8469H119.279ZM115.517 24.2883H102.701C101.915 20.6433 100.909 17.2568 99.6989 14.2321C99.0753 12.6732 98.4033 11.2364 97.69 9.9199C105.047 12.7037 111.283 17.7864 115.517 24.2883ZM84.7404 7.55859C88.0627 7.55859 92.3716 13.7188 94.9405 24.2883H74.5401C77.109 13.7188 81.4182 7.55859 84.7404 7.55859ZM71.7905 9.92015C71.077 11.2366 70.405 12.6732 69.7817 14.2321C68.5718 17.2568 67.5655 20.6433 66.7797 24.2883H53.9636C58.1974 17.7866 64.4332 12.704 71.7905 9.92015ZM54.8998 65.5947C54.5788 65.147 54.2649 64.6938 53.9636 64.2312H66.7794C67.4342 67.2692 68.2445 70.1241 69.1962 72.7429L54.8998 65.5947ZM50.2017 31.8469H65.5134C65.0231 35.826 64.7688 39.9986 64.7688 44.2599C64.7688 48.5211 65.0233 52.6937 65.5136 56.6728H50.2017C48.8033 52.794 48.0391 48.6146 48.0391 44.2599C48.0391 39.9051 48.8033 35.7259 50.2017 31.8469ZM60.7207 118.034C55.5388 120.268 49.8938 121.441 44.2599 121.441C38.6257 121.441 32.9807 120.268 27.7987 118.033V100.976L42.5697 108.361C43.1016 108.627 43.6806 108.76 44.2599 108.76C44.8391 108.76 45.4181 108.627 45.95 108.361L60.7207 100.976V118.034ZM44.2599 100.755L12.2301 84.7404L44.2599 68.7255L76.2894 84.7404L44.2599 100.755ZM85.4479 80.8689L80.817 78.5534C78.4887 75.8402 76.1659 70.9203 74.5401 64.2314H94.9405C92.5504 74.0651 88.6545 80.079 85.4479 80.8689ZM96.3484 56.6728H73.1322C72.6217 52.8918 72.3272 48.7383 72.3272 44.2599C72.3272 39.7814 72.6215 35.6282 73.1322 31.8469H96.3484C96.8588 35.6279 97.1534 39.7814 97.1534 44.2599C97.1534 48.7383 96.8588 52.8915 96.3484 56.6728ZM97.6898 78.5995C98.4033 77.2831 99.0753 75.8465 99.6989 74.2874C100.909 71.2627 101.915 67.8764 102.701 64.2312H115.517C111.283 70.7331 105.047 75.8157 97.6898 78.5995Z" fill="#8F1F7B" fill-opacity="0.04"/>
</svg>
