<svg width="146" height="146" viewBox="0 0 146 146" fill="none" xmlns="http://www.w3.org/2000/svg">
<path d="M3.32439 66.2268C4.45375 57.3278 6.56298 50.0971 10.2782 42.3952C19.8279 22.5984 38.2053 8.62252 60.5203 4.18783C66.6427 2.97116 79.3573 2.97116 85.4797 4.18783C99.5123 6.97688 111.029 12.9122 121.026 22.5076C129.436 30.5802 134.692 38.5405 138.643 49.1899C141.688 57.3966 142.671 63.2054 142.671 73C142.671 82.9601 141.668 88.7284 138.458 97.248C134.496 107.762 129.358 115.496 121.013 123.505C111.334 132.795 100.134 138.693 86.7757 141.537C79.2318 143.142 66.6703 143.147 59.2243 141.547C44.7011 138.427 32.853 131.804 22.5076 121.026C12.9644 111.083 6.91819 99.3919 4.26762 85.7567C3.46136 81.608 2.88538 69.6861 3.32439 66.2268ZM135.118 65.9759C133.19 51.0995 126.604 38.1025 115.729 27.7124C107.219 19.581 97.1703 14.317 85.1898 11.7141C79.3723 10.4503 66.6197 10.4563 60.7079 11.7256C39.3121 16.3199 21.9075 31.3358 14.4003 51.677C11.5636 59.3638 10.8095 63.8401 10.8095 73C10.8095 78.8606 11.0539 82.1508 11.7141 85.1897C14.3652 97.3915 19.6528 107.366 28.0962 116.094C40.8885 129.317 57.386 136.037 75.2577 135.303C91.7256 134.628 105.246 128.682 116.964 116.964C126.834 107.094 132.734 95.5828 134.739 82.2838C135.399 77.9063 135.591 69.6264 135.118 65.9759Z" fill="white"/>
<path d="M23.2898 81.8132C24.0905 81.1485 25.3523 81.0396 26.8419 81.5062C27.5654 81.733 29.5251 80.7396 33.866 77.9445C37.1773 75.8127 39.9654 74.0125 40.0612 73.9448C40.157 73.8771 40.2699 72.7713 40.3121 71.4874C40.3376 70.7092 40.3627 69.931 40.3883 69.1529C38.9213 68.2232 37.4543 67.293 35.9872 66.3633C33.5665 64.8291 31.691 63.4684 31.82 63.3395C31.9489 63.2105 34.0421 64.3469 36.4719 65.8646C40.2734 68.2387 41.1494 68.5889 42.7474 68.3767C44.2827 68.1725 44.814 68.3556 45.8149 69.4358C46.2183 69.8713 46.6222 70.3068 47.0255 70.7423C50.2375 70.7423 53.449 70.7423 56.661 70.7423C66.1666 70.7423 66.2945 70.7278 66.1365 69.6882C65.8987 68.1264 57.9254 64.9394 56.3515 65.7773C54.902 66.549 53.7867 66.0603 53.145 64.373C52.7155 63.2436 52.7793 62.8799 53.4992 62.3536C55.0736 61.2027 56.7243 61.5604 57.3379 63.1859C57.7979 64.4041 58.6433 64.9711 62.205 66.4471C64.5757 67.43 66.6523 68.2337 66.8193 68.2337C66.9864 68.2337 67.2699 67.8509 67.449 67.3838C67.6908 66.7537 66.0547 64.81 61.1128 59.858C54.7681 53.4998 54.3546 53.1822 52.4366 53.1867C50.8246 53.1902 50.1723 52.8972 49.1684 51.7172C48.0506 50.4032 47.1279 50.074 40.6843 48.6898C38.2746 48.172 35.8648 47.6548 33.4551 47.137C33.0728 47.4962 32.691 47.8549 32.3087 48.2142C30.0534 50.3329 26.6804 47.8118 27.9733 44.9736C28.9582 42.8117 32.2083 43.0244 33.0763 45.3072C33.4766 46.3603 34.3311 46.6639 40.867 48.0752C43.3138 48.6035 45.7612 49.1323 48.2081 49.6606C48.772 49.0967 49.3355 48.5328 49.8994 47.9688C50.4633 47.4049 51.0268 46.8415 51.5907 46.2775C51.0473 43.8803 50.5045 41.4831 49.9611 39.0859C48.4454 32.3975 48.2292 31.8376 46.8685 31.0835C44.8516 29.9657 44.7738 27.2353 46.7275 26.1386C47.9136 25.4728 48.1845 25.4853 49.3615 26.2565C50.9003 27.2649 51.1135 29.2873 49.8302 30.7052C49.0369 31.5817 49.0826 32.0784 50.6003 39.0232C51.4878 43.0851 52.4607 46.4938 52.7612 46.5971C54.15 47.0753 55.189 48.7691 55.189 50.5552C55.189 52.3102 55.6606 52.9143 61.8649 59.106C66.9418 64.1723 68.7515 65.6875 69.4197 65.4311C69.9701 65.2199 70.1849 64.7899 69.9952 64.2807C67.5724 57.7769 66.5233 55.8333 65.1597 55.3185C63.659 54.7521 63.2446 53.2023 64.1928 51.7036C64.4889 51.236 64.3945 50.36 63.9279 49.2432C63.5296 48.2894 63.2983 47.4144 63.4147 47.298C63.5311 47.1816 63.9154 47.886 64.2691 48.8639C64.6936 50.0384 65.3744 50.8025 66.2745 51.1166C67.8659 51.6715 68.5151 53.2238 67.7525 54.6492C66.9598 56.1303 70.1322 63.9691 71.5239 63.9691C72.4501 63.9691 72.5048 63.493 72.6342 54.3758C72.6794 51.1778 72.7251 47.9804 72.7702 44.7824C72.3322 44.4954 71.8947 44.2085 71.4567 43.9215C70.3123 43.1719 70.1713 42.7921 70.359 40.9724C70.5571 39.0493 70.2431 38.375 66.4104 32.4863C62.9375 27.151 62.042 26.0894 61.0114 26.0894C60.3321 26.0894 59.421 25.7347 58.9875 25.3012C58.0543 24.368 57.949 22.025 58.8014 21.1726C59.7376 20.2364 61.9597 20.4626 62.9882 21.599C63.7789 22.473 63.8326 22.8568 63.3439 24.1518C62.7976 25.5987 62.9787 25.9981 66.9071 32.0287C68.2869 34.1465 69.6661 36.2637 71.0458 38.3815C71.7603 38.3629 72.4752 38.3439 73.1897 38.3253C74.3687 38.2947 75.626 37.956 75.9837 37.5727C76.3414 37.1894 78.242 34.3191 80.2077 31.1939C83.2366 26.3784 83.6991 25.3574 83.2401 24.4995C81.8609 21.9221 84.6935 19.2319 87.1158 20.8193C88.7555 21.8935 88.7314 24.2802 87.0702 25.3684C86.3924 25.8124 85.6478 26.0583 85.4155 25.9148C84.6599 25.4477 84.0067 26.2515 80.0547 32.5104C76.5572 38.0499 76.1919 38.8591 76.4859 40.426C76.7684 41.9306 76.6008 42.3837 75.2723 43.7122C74.7585 44.226 74.2448 44.7398 73.731 45.2535C73.7767 48.3727 73.8213 51.4924 73.867 54.6116C73.9989 63.6681 74.0371 63.9736 75.051 64.1186C75.9421 64.2461 76.347 63.6265 77.7608 59.9694C79.0748 56.5698 79.3161 55.4359 78.9132 54.5514C78.2329 53.0578 78.9669 51.1753 80.2293 51.1753C80.7736 51.1753 81.3762 50.9214 81.5683 50.6104C81.7776 50.2717 82.1915 50.6962 82.6014 51.671C83.5486 53.9237 83.502 54.0913 81.623 55.2001C80.3301 55.9627 79.6046 57.0459 78.3579 60.0748C75.2959 67.5133 76.4112 67.3156 84.8155 58.9274C91.2159 52.539 91.7311 51.8872 91.4597 50.5306C91.2149 49.3074 91.4527 48.7942 92.8695 47.4837C94.457 46.0156 94.6737 45.4171 96.0294 38.7558C97.387 32.0859 97.4292 31.5426 96.6565 30.6886C94.5749 28.3888 96.8783 24.7619 99.6257 26.0136C100.312 26.3262 101.004 26.9238 101.164 27.3407C101.679 28.6823 100.876 30.5346 99.4902 31.2059C98.268 31.7974 98.0122 32.4482 96.7614 38.1306C95.0611 45.8571 95.0079 46.993 96.3299 47.4124C96.8818 47.5875 97.3368 47.885 97.3409 48.0732C97.3755 49.6125 98.264 49.6566 103.889 48.3968C112.377 46.4958 113.388 46.1832 113.388 45.4637C113.388 44.509 115.062 43.1478 116.235 43.1478C117.441 43.1478 118.907 44.6329 118.907 45.8541C118.907 48.459 116.248 49.5939 114.291 47.8233C113.415 47.0301 112.918 47.0758 105.973 48.5945C99.29 50.056 98.4772 50.3505 97.4226 51.6956C96.4618 52.9213 95.8884 53.1822 94.1539 53.1822C92.128 53.1822 91.8169 53.4165 85.6614 59.5861C79.7607 65.4999 78.539 67.2198 79.7205 67.9503C79.9674 68.1028 82.1172 67.4029 84.4974 66.3954C87.6627 65.0553 88.9918 64.214 89.4463 63.2627C90.1277 61.8363 91.969 61.3005 93.0642 62.2096C93.585 62.6421 94.025 62.6411 94.8358 62.2071C95.4288 61.8895 96.0249 61.741 96.1598 61.876C96.2948 62.0109 95.9175 62.2763 95.3214 62.4655C94.7254 62.6546 94.0085 63.4669 93.7285 64.2702C93.1495 65.9313 91.2194 66.6889 90.0459 65.7151C88.9948 64.8431 80.153 68.4821 80.3853 69.6912C80.5188 70.3851 81.8282 70.5095 90.235 70.6279C93.4671 70.6736 96.6992 70.7187 99.9312 70.7644C100.277 70.3244 100.624 69.8839 100.97 69.4439C101.857 68.3165 102.29 68.1605 103.93 68.3807C105.676 68.615 106.441 68.2588 112.254 64.503C117.776 60.9357 118.679 60.1661 118.826 58.9068C119.057 56.9225 119.767 56.1925 121.465 56.1925C123.431 56.1925 124.804 58.225 124.013 59.9619C123.372 61.3697 121.433 62.0245 120.068 61.294C119.301 60.8831 117.965 61.5408 112.793 64.8757C110.682 66.2374 108.57 67.5991 106.459 68.9607C106.463 69.7178 106.467 70.4739 106.472 71.231C106.482 72.9128 106.763 73.7416 107.554 74.4264C108.56 75.2974 108.564 75.329 107.619 74.9673C107.067 74.7561 105.521 74.5659 104.184 74.5443C102.154 74.5117 101.571 74.2759 100.645 73.1139C100.275 72.6504 99.9052 72.1863 99.5354 71.7227C96.367 71.7683 93.1987 71.814 90.0303 71.8596C80.9593 71.9901 80.5193 72.0423 80.3868 73.0001C80.285 73.7351 80.7551 74.2383 82.1428 74.8795C83.9174 75.6998 83.7368 75.7028 80.4003 74.9081C77.8391 74.298 79.4501 76.7042 85.9353 83.1759C92.2173 89.4454 92.6889 89.8081 94.1615 89.5136C95.7108 89.2035 96.1729 89.485 98.1361 91.9279C98.4396 92.3057 101.982 93.2725 106.007 94.0767C112.935 95.4605 113.376 95.4926 114.274 94.6798C115.459 93.6076 117.087 93.578 118.119 94.6096C119.807 96.2973 118.566 99.3403 116.19 99.3403C115.011 99.3403 113.388 97.9425 113.388 96.927C113.388 96.6089 112.881 96.2291 112.259 96.0826C108.113 95.1043 99.5805 93.3196 99.0517 93.3196C98.701 93.3196 97.6876 94.0461 96.7995 94.9342C96.2612 95.4725 95.7233 96.0098 95.185 96.5482C95.6365 98.6439 96.0886 100.741 96.5401 102.836C98.3282 111.134 98.1948 110.781 99.8775 111.651C101.049 112.256 101.347 112.745 101.347 114.054C101.347 114.957 101.076 115.967 100.745 116.298C99.8454 117.198 97.6013 117.025 96.6585 115.983C95.5768 114.788 95.6094 113.801 96.7799 112.314C97.7212 111.117 97.7136 111.022 96.0529 103.6C95.1298 99.4727 94.1088 96.0078 93.7842 95.8995C92.2359 95.3832 91.2033 93.6859 91.4632 92.0839C91.7116 90.5522 91.3493 90.0821 85.1165 83.8618C78.0583 76.8181 76.4202 75.8709 76.9631 79.1461C77.0669 79.7733 77.1708 80.4004 77.2746 81.0275C77.0112 80.5574 76.7483 80.0873 76.4849 79.6172C76.0083 78.7663 75.3601 78.2716 74.8493 78.3694C74.0973 78.5139 73.9879 79.5856 73.8665 88.0245C73.8208 91.1888 73.7757 94.3527 73.73 97.517C74.2528 97.9947 74.7756 98.4718 75.2984 98.9494C76.6711 100.203 76.8256 100.603 76.5371 102.142C76.2863 103.478 76.4684 104.324 77.2947 105.661C77.8928 106.629 78.2695 107.533 78.1316 107.671C77.9936 107.809 77.4086 107.158 76.8311 106.223C75.8884 104.698 75.5492 104.525 73.5123 104.525C72.2645 104.525 71.112 104.393 70.951 104.232C70.7899 104.07 70.5391 103.053 70.3941 101.97C70.1668 100.277 70.3143 99.8565 71.4507 98.963C71.8907 98.6168 72.3312 98.2706 72.7712 97.9244C72.7256 94.6903 72.6804 91.4558 72.6348 88.2217C72.5038 78.8988 72.4592 78.519 71.4949 78.519C70.943 78.519 70.3108 78.237 70.09 77.8918C69.2065 76.5106 67.7019 77.5321 61.5789 83.6686C55.4424 89.8187 55.189 90.1548 55.189 92.1612C55.189 93.8665 54.9211 94.4646 53.7295 95.4158C52.423 96.4589 52.1075 97.3324 50.7197 103.751C50.2029 106.142 49.6862 108.532 49.1694 110.922C49.5417 111.425 49.9134 111.929 50.2857 112.432C51.3208 113.832 51.3468 114.041 50.6459 115.296C49.5723 117.218 47.0326 117.434 45.8967 115.7C44.835 114.08 45.3087 112.59 47.1971 111.614C48.0054 111.196 48.6667 110.746 48.6667 110.613C48.6667 110.481 49.348 107.158 50.1809 103.229C51.2912 97.9921 51.5345 96.0314 51.0935 95.8844C50.7628 95.774 49.9987 95.1519 49.3962 94.5017C48.7936 93.8515 47.7621 93.2936 47.1038 93.2614C46.0723 93.2113 46.0457 93.1696 46.9107 92.9569C47.4625 92.8214 48.6476 91.9163 49.5442 90.9455C50.8843 89.4945 51.4266 89.2311 52.5916 89.4639C53.878 89.7213 54.6461 89.1087 60.9342 82.8086C64.9459 78.7889 67.7144 75.6356 67.5152 75.313C67.3261 75.0069 66.6763 74.7526 66.0718 74.7485C65.269 74.743 65.1546 74.6251 65.6488 74.312C66.0211 74.0762 66.2439 73.4586 66.144 72.9398C65.9754 72.0623 65.3046 71.9871 56.5231 71.8601C53.3763 71.8145 50.23 71.7688 47.0832 71.7232C46.6026 72.2379 46.122 72.7522 45.6413 73.267C44.4006 74.5955 43.9616 74.7656 42.495 74.4907C40.9698 74.2047 40.1229 74.603 34.4435 78.2781C29.2226 81.6562 28.0962 82.5984 28.0962 83.5878C28.0962 85.0343 26.4621 86.7973 25.1215 86.7973C22.9506 86.7973 21.6261 83.194 23.2898 81.8132ZM79.0863 68.9863C78.0689 66.7386 76.5542 65.6348 74.1068 65.3589C67.0496 64.5637 64.4176 73.7431 70.7618 77.0238C72.6016 77.9756 73.9417 77.962 76.0304 76.9707C78.992 75.5653 80.3998 71.8877 79.0863 68.9863Z" fill="white"/>
<path d="M70.3981 68.321C71.54 67.2483 73.8138 66.9001 75.486 67.5418C76.4779 67.9226 77.7663 70.3053 77.7663 71.7593C77.7663 72.3463 77.079 73.5138 76.2381 74.3547C74.9166 75.6762 74.458 75.8433 72.8515 75.5859C71.8295 75.4223 70.5978 74.8052 70.1151 74.2142C68.8292 72.6408 68.9722 69.6606 70.3981 68.321Z" fill="white"/>
<path d="M28.5979 94.8247C29.8572 93.5654 30.7824 93.5594 32.5063 94.7981C33.86 95.7709 33.8891 95.7704 39.134 94.5583C42.0314 93.889 44.8536 93.3567 45.4055 93.3757C46.5439 93.4154 43.2551 94.334 37.4688 95.5928C34.2357 96.2962 33.4681 96.651 33.1029 97.6117C32.6714 98.7466 31.2149 99.8419 30.1362 99.8419C29.2376 99.8419 27.5945 97.8957 27.5945 96.8316C27.5945 96.2797 28.046 95.3766 28.5979 94.8247Z" fill="white"/>
<path d="M59.117 117.731C59.6217 117.274 60.4897 116.9 61.0461 116.9C62.329 116.9 62.8061 116.321 66.9603 109.733C68.8368 106.757 70.4744 104.424 70.5993 104.549C70.7242 104.673 69.1087 107.487 67.0095 110.8C63.4869 116.361 63.2165 116.976 63.5055 118.783C63.8647 121.03 62.9074 122.419 61.0009 122.419C58.5887 122.419 57.3479 119.332 59.117 117.731Z" fill="white"/>
<path d="M52.723 79.2589C52.9358 78.852 53.2433 78.0939 53.4069 77.5742C53.6608 76.7669 54.034 76.6741 55.9656 76.939C57.7382 77.1818 58.9343 76.9661 61.4961 75.9406C63.2937 75.2206 64.8696 74.7364 64.9971 74.8639C65.1245 74.9913 63.6485 75.7318 61.7173 76.5095C59.0206 77.5952 57.976 78.3122 57.2159 79.6006C56.1402 81.4243 55.4574 81.6185 53.5689 80.6386C52.7165 80.1961 52.4556 79.7707 52.723 79.2589Z" fill="white"/>
<path d="M64.3454 87.9402C64.6906 87.6733 65.3318 87.3281 65.7708 87.1725C66.2098 87.017 67.3226 85.0653 68.2432 82.8352C69.1639 80.6051 70.0188 78.8822 70.1432 79.0066C70.2677 79.131 69.6365 81.0491 68.7414 83.2697C67.4249 86.5354 67.2318 87.449 67.73 88.049C68.6842 89.199 67.9327 91.1446 66.3156 91.7081C65.1356 92.1195 64.7929 92.0437 64.3057 91.2636C63.5396 90.0369 63.5577 88.5498 64.3454 87.9402Z" fill="white"/>
<path d="M115.771 79.7767C115.979 79.7787 116.789 80.2026 117.573 80.7194C118.731 81.4825 119.262 81.5588 120.407 81.1268C121.532 80.7024 122.079 80.7671 123.121 81.4499C125.458 82.9812 124.52 86.2955 121.749 86.2955C119.756 86.2955 118.907 85.5309 118.907 83.7357C118.907 82.7549 118.456 82.0916 117.277 81.336C116.38 80.7616 115.589 80.2879 115.521 80.2834C115.199 80.2618 115.44 79.7737 115.771 79.7767Z" fill="white"/>
<path d="M28.9396 61.8438C28.2688 61.5382 26.8108 61.4103 25.7005 61.5593C23.9485 61.7941 23.5737 61.6647 22.8653 60.584C21.2412 58.105 23.8888 55.2482 26.5103 56.651C27.6086 57.239 28.3461 58.8942 27.8599 59.6809C27.6943 59.9488 28.4966 60.7887 29.6425 61.5473C30.7884 62.3059 31.4944 63.0038 31.2114 63.0981C30.9284 63.1924 30.5762 63.074 30.4282 62.8347C30.2802 62.5954 29.6104 62.1493 28.9396 61.8438Z" fill="white"/>
<path d="M78.4833 83.0343C79.1591 84.4141 79.7255 85.8028 79.7426 86.1209C79.7596 86.439 80.4294 86.9277 81.2312 87.2071C83.078 87.8508 83.505 89.1849 82.5612 91.3594C82.1533 92.2996 81.8107 92.7867 81.7996 92.4416C81.7886 92.0964 81.3335 91.8144 80.7882 91.8144C80.2428 91.8144 79.439 91.2685 79.002 90.6018C78.3398 89.5913 78.3147 89.217 78.852 88.3566C79.3914 87.4926 79.3472 86.9327 78.5796 84.9283C77.1678 81.2422 77.1171 80.2448 78.4833 83.0343Z" fill="white"/>
<path d="M89.3911 77.0002C92.9132 77.0152 93.8213 77.376 93.8213 78.7577C93.8213 79.2705 94.1033 79.8038 94.4484 79.9428C94.8207 80.0928 94.7154 80.2117 94.1906 80.2353C93.7039 80.2568 92.8565 80.5559 92.3076 80.8985C91.0849 81.6622 89.6319 80.9241 89.4067 79.425C89.3244 78.8761 88.5723 78.103 87.736 77.7066C86.2383 76.9972 86.2634 76.9866 89.3911 77.0002Z" fill="white"/>
<path d="M37.4994 84.1181C37.7357 83.9721 39.1596 83.9159 40.6638 83.9936C42.4654 84.087 43.0394 84.25 42.346 84.4723C41.767 84.6579 41.031 85.3844 40.7109 86.0873C40.2589 87.0797 39.8224 87.3296 38.7537 87.2066C37.6881 87.0842 37.3434 86.7476 37.224 85.7155C37.1392 84.9825 37.2631 84.2641 37.4994 84.1181Z" fill="white"/>
<path d="M83.6113 117.38C83.9475 116.137 87.1735 116.744 88.1494 118.233C89.7152 120.624 86.9307 123.331 84.3353 121.943C83.3173 121.398 83.0243 119.55 83.6113 117.38Z" fill="white"/>
<path d="M86.5173 35.3129C87.9412 34.7666 89.053 35.3591 89.2135 36.7509C89.3365 37.817 89.0856 38.2525 88.0847 38.7086C87.3767 39.0312 86.7747 39.5414 86.7471 39.8419C86.6703 40.6803 85.9007 38.0322 85.844 36.7353C85.8164 36.1056 86.1194 35.4655 86.5173 35.3129Z" fill="white"/>
<path d="M105.895 56.8708C106.114 56.2783 106.538 55.6431 106.835 55.459C107.597 54.9884 109.228 55.5879 109.563 56.4624C109.657 56.7068 109.751 56.9516 109.845 57.1959C109.751 57.4403 109.657 57.6851 109.563 57.9294C109.149 59.0086 107.516 59.3634 106.438 58.6078C105.745 58.1221 105.602 57.664 105.895 56.8708Z" fill="white"/>
<path d="M37.8556 55.7108C38.8501 54.8855 40.2709 55.4358 40.9518 56.9099C41.461 58.0122 41.3762 58.1883 40.0737 58.7276C38.9449 59.1952 38.4677 59.1892 37.8792 58.7005C36.9245 57.9078 36.9134 56.493 37.8556 55.7108Z" fill="white"/>
<path d="M86.1425 104.021C86.3482 102.966 86.3994 102.958 87.8273 103.77C89.4328 104.684 89.7855 106.345 88.5854 107.341C88.0505 107.785 87.598 107.796 86.8293 107.385C85.8214 106.845 85.704 106.27 86.1425 104.021Z" fill="white"/>
<path d="M106.354 84.0975C108.964 83.6801 110.251 84.6584 109.337 86.3648C108.599 87.7445 106.446 87.5779 105.883 86.0974C105.631 85.4366 105.13 84.7969 104.767 84.676C104.405 84.5551 105.119 84.2952 106.354 84.0975Z" fill="white"/>
<path d="M57.823 104.497C59.2484 103.394 60.0833 103.437 60.6321 104.642C61.604 106.775 60.1239 108.397 58.1632 107.348C57.0674 106.762 56.8838 105.224 57.823 104.497Z" fill="white"/>
<path d="M57.7979 35.7223C59.4692 34.0511 61.6842 36.0379 60.6587 38.2886C60.1319 39.4446 60.0286 39.4702 58.6499 38.7823C57.1296 38.0237 56.7739 36.7463 57.7979 35.7223Z" fill="white"/>
<path d="M79.4636 109.375C79.855 109.375 83.9154 115.936 83.6736 116.178C83.5356 116.316 82.4885 114.995 81.3471 113.243C79.4225 110.289 78.9775 109.375 79.4636 109.375Z" fill="white"/>
<path d="M110.208 76.2612C110.831 76.2612 115.434 79.3994 115.182 79.6513C115.044 79.7893 113.794 79.1721 112.404 78.2801C109.987 76.7293 109.478 76.2612 110.208 76.2612Z" fill="white"/>
<path d="M84.2886 75.775C84.7026 75.775 85.3799 75.9938 85.7938 76.2612C86.0447 76.4232 86.2955 76.5853 86.5464 76.7473C86.2955 76.7473 86.0447 76.7473 85.7938 76.7473C85.3799 76.7473 84.7026 76.5286 84.2886 76.2612C84.0378 76.0991 83.7869 75.9371 83.5361 75.775C83.7869 75.775 84.0378 75.775 84.2886 75.775Z" fill="white"/>
<path d="M108.814 75.2578C109.09 75.2578 109.455 75.4835 109.625 75.7595C109.796 76.0354 109.71 76.2612 109.434 76.2612C109.158 76.2612 108.793 76.0354 108.622 75.7595C108.451 75.4835 108.538 75.2578 108.814 75.2578Z" fill="white"/>
<path d="M78.7698 108.12C79.0457 108.291 79.2715 108.656 79.2715 108.932C79.2715 109.208 79.0457 109.294 78.7698 109.124C78.4938 108.953 78.268 108.588 78.268 108.312C78.268 108.036 78.4938 107.95 78.7698 108.12Z" fill="white"/>
<path d="M61.1941 101.096C61.1941 101.372 60.9753 101.937 60.7079 102.351C60.4405 102.764 60.2217 102.877 60.2217 102.601C60.2217 102.325 60.4405 101.761 60.7079 101.347C60.9753 100.933 61.1941 100.82 61.1941 101.096Z" fill="white"/>
<path d="M85.2765 42.8969C85.2765 43.1728 85.0578 43.7373 84.7904 44.1512C84.5229 44.5651 84.3042 44.678 84.3042 44.4021C84.3042 44.1261 84.5229 43.5617 84.7904 43.1478C85.0578 42.7338 85.2765 42.621 85.2765 42.8969Z" fill="white"/>
<path d="M84.2731 45.4055C84.2731 45.6815 84.0544 46.2459 83.7869 46.6598C83.5195 47.0737 83.3008 47.1866 83.3008 46.9107C83.3008 46.6347 83.5195 46.0703 83.7869 45.6564C84.0544 45.2425 84.2731 45.1296 84.2731 45.4055Z" fill="white"/>
<path d="M83.2697 47.9141C83.2697 48.1901 83.0509 48.7545 82.7835 49.1684C82.5161 49.5823 82.2973 49.6952 82.2973 49.4193C82.2973 49.1433 82.5161 48.5789 82.7835 48.165C83.0509 47.7511 83.2697 47.6382 83.2697 47.9141Z" fill="white"/>
<path d="M63.7027 95.0756C63.7027 95.3516 63.4839 95.916 63.2165 96.3299C62.9491 96.7438 62.7303 96.8567 62.7303 96.5808C62.7303 96.3048 62.9491 95.7404 63.2165 95.3265C63.4839 94.9126 63.7027 94.7997 63.7027 95.0756Z" fill="white"/>
<path d="M62.1975 98.5876C62.1975 98.8636 61.9788 99.428 61.7114 99.8419C61.4439 100.256 61.2252 100.369 61.2252 100.093C61.2252 99.8168 61.4439 99.2524 61.7114 98.8385C61.9788 98.4246 62.1975 98.3117 62.1975 98.5876Z" fill="white"/>
<path d="M47.4339 81.8613C49.2788 81.0209 49.6726 81.181 47.9954 82.0901C47.2122 82.5145 46.4772 82.7684 46.3623 82.6535C46.2474 82.5386 46.73 82.1819 47.4339 81.8613Z" fill="white"/>
<path d="M44.1512 83.2852C44.4271 83.2024 44.8787 83.1347 45.1546 83.1347C45.3217 83.1347 45.4893 83.1347 45.6563 83.1347C45.4893 83.1849 45.3217 83.235 45.1546 83.2852C44.8787 83.368 44.4271 83.4357 44.1512 83.4357C43.9841 83.4357 43.8165 83.4357 43.6495 83.4357C43.8165 83.3856 43.9841 83.3354 44.1512 83.2852Z" fill="white"/>
<path d="M50.1718 80.7766C50.4478 80.6938 50.8993 80.6261 51.1753 80.6261C51.3423 80.6261 51.5099 80.6261 51.677 80.6261C51.5099 80.6763 51.3423 80.7264 51.1753 80.7766C50.8993 80.8594 50.4478 80.9271 50.1718 80.9271C50.0048 80.9271 49.8372 80.9271 49.6701 80.9271C49.8372 80.877 50.0048 80.8268 50.1718 80.7766Z" fill="white"/>
<path d="M102.351 59.2027C102.626 59.1199 103.078 59.0522 103.354 59.0522C103.521 59.0522 103.689 59.0522 103.856 59.0522C103.689 59.1024 103.521 59.1525 103.354 59.2027C103.078 59.2855 102.626 59.3532 102.351 59.3532C102.183 59.3532 102.016 59.3532 101.849 59.3532C102.016 59.303 102.183 59.2529 102.351 59.2027Z" fill="white"/>
<path d="M99.8419 60.2062C100.118 60.1234 100.569 60.0557 100.845 60.0557C101.012 60.0557 101.18 60.0557 101.347 60.0557C101.18 60.1058 101.012 60.156 100.845 60.2062C100.569 60.289 100.118 60.3567 99.8419 60.3567C99.6749 60.3567 99.5073 60.3567 99.3402 60.3567C99.5073 60.3065 99.6749 60.2564 99.8419 60.2062Z" fill="white"/>
<path d="M97.3333 61.2096C97.6093 61.1268 98.0608 61.0591 98.3368 61.0591C98.5038 61.0591 98.6714 61.0591 98.8385 61.0591C98.6714 61.1093 98.5038 61.1594 98.3368 61.2096C98.0608 61.2924 97.6093 61.3601 97.3333 61.3601C97.1663 61.3601 96.9987 61.3601 96.8316 61.3601C96.9987 61.3099 97.1663 61.2598 97.3333 61.2096Z" fill="white"/>
<path d="M64.1803 94.1976C64.1587 94.6802 64.0458 94.8498 63.9294 94.5739C63.6445 93.8976 63.663 93.3196 63.9691 93.3196C64.107 93.3196 64.2019 93.7149 64.1803 94.1976Z" fill="white"/>
<path d="M104.608 58.1993C104.746 58.1993 104.859 58.3122 104.859 58.4502C104.859 58.5882 104.746 58.7011 104.608 58.7011C104.47 58.7011 104.357 58.5882 104.357 58.4502C104.357 58.3122 104.47 58.1993 104.608 58.1993Z" fill="white"/>
<path d="M98.5876 81.8553C98.6714 81.8303 98.7547 81.8052 98.8385 81.7801C98.9223 81.8052 99.0056 81.8303 99.0894 81.8553C99.2273 81.897 99.1144 81.9306 98.8385 81.9306C98.5625 81.9306 98.4497 81.897 98.5876 81.8553Z" fill="white"/>
<path d="M46.9106 60.2814C46.9944 60.2563 47.0777 60.2313 47.1615 60.2062C47.2453 60.2313 47.3286 60.2563 47.4124 60.2814C47.5503 60.3226 47.4375 60.3567 47.1615 60.3567C46.8856 60.3567 46.7727 60.3226 46.9106 60.2814Z" fill="white"/>
<path d="M44.4021 59.278C44.4858 59.2529 44.5691 59.2278 44.6529 59.2028C44.7367 59.2278 44.82 59.2529 44.9038 59.278C45.0417 59.3192 44.9289 59.3533 44.6529 59.3533C44.377 59.3533 44.2641 59.3192 44.4021 59.278Z" fill="white"/>
<path d="M41.8935 58.2746C41.9773 58.2495 42.0605 58.2244 42.1443 58.1993C42.2281 58.2244 42.3114 58.2495 42.3952 58.2746C42.5332 58.3157 42.4203 58.3499 42.1443 58.3499C41.8684 58.3499 41.7555 58.3157 41.8935 58.2746Z" fill="white"/>
<path d="M48.9175 61.2849C49.0013 61.2598 49.0846 61.2347 49.1684 61.2096C49.2522 61.2347 49.3355 61.2598 49.4192 61.2849C49.5572 61.326 49.4443 61.3601 49.1684 61.3601C48.8924 61.3601 48.7796 61.326 48.9175 61.2849Z" fill="white"/>
<path d="M47.9141 60.7831C47.9979 60.7581 48.0812 60.733 48.1649 60.7079C48.2487 60.733 48.332 60.7581 48.4158 60.7831C48.5538 60.8243 48.4409 60.8584 48.1649 60.8584C47.889 60.8584 47.7761 60.8243 47.9141 60.7831Z" fill="white"/>
<path d="M45.4055 59.7797C45.4893 59.7546 45.5726 59.7296 45.6564 59.7045C45.7402 59.7296 45.8234 59.7546 45.9072 59.7797C46.0452 59.8209 45.9323 59.855 45.6564 59.855C45.3804 59.855 45.2675 59.8209 45.4055 59.7797Z" fill="white"/>
<path d="M42.8969 58.7763C42.9807 58.7512 43.064 58.7261 43.1478 58.701C43.2315 58.7261 43.3148 58.7512 43.3986 58.7763C43.5366 58.8174 43.4237 58.8516 43.1478 58.8516C42.8718 58.8516 42.7589 58.8174 42.8969 58.7763Z" fill="white"/>
<path d="M97.5842 81.3536C97.668 81.3285 97.7513 81.3034 97.835 81.2783C97.9188 81.3034 98.0021 81.3285 98.0859 81.3536C98.2239 81.3952 98.111 81.4288 97.835 81.4288C97.5591 81.4288 97.4462 81.3952 97.5842 81.3536Z" fill="white"/>
<path d="M96.5807 80.8519C96.6645 80.8268 96.7478 80.8017 96.8316 80.7766C96.9154 80.8017 96.9987 80.8268 97.0825 80.8519C97.2204 80.8935 97.1075 80.9271 96.8316 80.9271C96.5557 80.9271 96.4428 80.8935 96.5807 80.8519Z" fill="white"/>
<path d="M95.0756 80.3502C95.1594 80.3251 95.2427 80.3 95.3265 80.2749C95.4103 80.3 95.4935 80.3251 95.5773 80.3502C95.7153 80.3918 95.6024 80.4254 95.3265 80.4254C95.0505 80.4254 94.9376 80.3918 95.0756 80.3502Z" fill="white"/>
<path d="M86.2203 40.3883C86.2454 40.4721 86.2705 40.5554 86.2955 40.6392C86.2705 40.7229 86.2454 40.8062 86.2203 40.89C86.1786 41.028 86.145 40.9151 86.145 40.6392C86.145 40.3632 86.1786 40.2503 86.2203 40.3883Z" fill="white"/>
<path d="M85.7186 41.8934C85.7437 41.9772 85.7687 42.0605 85.7938 42.1443C85.7687 42.2281 85.7437 42.3114 85.7186 42.3951C85.6769 42.5331 85.6433 42.4202 85.6433 42.1443C85.6433 41.8683 85.6769 41.7554 85.7186 41.8934Z" fill="white"/>
<path d="M64.6464 92.567C64.6715 92.6508 64.6966 92.7341 64.7217 92.8179C64.6966 92.9016 64.6715 92.9849 64.6464 93.0687C64.6048 93.2067 64.5711 93.0938 64.5711 92.8179C64.5711 92.5419 64.6048 92.429 64.6464 92.567Z" fill="white"/>
<path d="M51.4261 62.2883C51.5099 62.2632 51.5932 62.2382 51.677 62.2131C51.7608 62.2382 51.8441 62.2632 51.9278 62.2883C52.0658 62.3295 51.9529 62.3636 51.677 62.3636C51.401 62.3636 51.2881 62.3295 51.4261 62.2883Z" fill="white"/>
<path d="M50.4227 61.7866C50.5065 61.7615 50.5898 61.7365 50.6735 61.7114C50.7573 61.7365 50.8406 61.7615 50.9244 61.7866C51.0624 61.8278 50.9495 61.8619 50.6735 61.8619C50.3976 61.8619 50.2847 61.8278 50.4227 61.7866Z" fill="white"/>
<path d="M103.605 83.8622C103.689 83.8371 103.772 83.812 103.856 83.7869C103.939 83.812 104.023 83.8371 104.107 83.8622C104.245 83.9038 104.132 83.9374 103.856 83.9374C103.58 83.9374 103.467 83.9038 103.605 83.8622Z" fill="white"/>
<path d="M102.601 83.3605C102.685 83.3354 102.768 83.3103 102.852 83.2852C102.936 83.3103 103.019 83.3354 103.103 83.3605C103.241 83.4021 103.128 83.4357 102.852 83.4357C102.576 83.4357 102.463 83.4021 102.601 83.3605Z" fill="white"/>
<path d="M101.096 82.8588C101.18 82.8337 101.263 82.8086 101.347 82.7835C101.431 82.8086 101.514 82.8337 101.598 82.8588C101.736 82.9004 101.623 82.934 101.347 82.934C101.071 82.934 100.958 82.9004 101.096 82.8588Z" fill="white"/>
<path d="M100.093 82.3571C100.177 82.332 100.26 82.3069 100.344 82.2818C100.427 82.3069 100.511 82.332 100.595 82.3571C100.732 82.3987 100.62 82.4323 100.344 82.4323C100.068 82.4323 99.9548 82.3987 100.093 82.3571Z" fill="white"/>
</svg>
